<?xml version="1.0" standalone="no"?>
<!DOCTYPE svg PUBLIC "-//W3C//DTD SVG 20010904//EN"
 "http://www.w3.org/TR/2001/REC-SVG-20010904/DTD/svg10.dtd">
<svg version="1.0" xmlns="http://www.w3.org/2000/svg"
 width="71.000000pt" height="73.000000pt" viewBox="0 0 71.000000 73.000000"
 preserveAspectRatio="xMidYMid meet">

<g transform="translate(0.000000,73.000000) scale(0.100000,-0.100000)"
fill="#000000" stroke="none">
<path d="M153 715 c-47 -33 -54 -134 -12 -176 17 -17 34 -19 208 -19 104 0
197 3 206 6 40 16 57 101 30 154 -20 38 -43 50 -97 50 -53 0 -101 -28 -119
-68 l-13 -30 -15 30 c-8 17 -29 39 -45 49 -38 23 -113 25 -143 4z m118 -74
c45 -46 39 -61 -24 -61 -57 0 -77 12 -77 45 0 51 56 60 101 16z m263 -3 c14
-41 -6 -58 -70 -58 -64 0 -70 15 -24 61 38 39 80 37 94 -3z"/>
<path d="M0 415 l0 -55 155 0 155 0 0 55 0 55 -155 0 -155 0 0 -55z"/>
<path d="M400 415 l0 -55 155 0 155 0 0 55 0 55 -155 0 -155 0 0 -55z"/>
<path d="M40 186 c0 -120 2 -136 21 -160 20 -25 23 -26 135 -26 l114 0 0 160
0 160 -135 0 -135 0 0 -134z"/>
<path d="M400 160 l0 -160 114 0 c112 0 115 1 135 26 19 24 21 40 21 160 l0
134 -135 0 -135 0 0 -160z"/>
</g>
</svg>
