<?xml version="1.0" standalone="no"?>
<!DOCTYPE svg PUBLIC "-//W3C//DTD SVG 20010904//EN"
 "http://www.w3.org/TR/2001/REC-SVG-20010904/DTD/svg10.dtd">
<svg version="1.0" xmlns="http://www.w3.org/2000/svg"
 width="86.000000pt" height="76.000000pt" viewBox="0 0 86.000000 76.000000"
 preserveAspectRatio="xMidYMid meet">

<g transform="translate(0.000000,76.000000) scale(0.100000,-0.100000)"
fill="#000000" stroke="none">
<path d="M150 734 c-46 -20 -97 -69 -123 -119 -26 -51 -27 -146 -2 -196 21
-42 384 -409 405 -409 21 0 384 367 405 409 25 50 24 145 -2 196 -75 143 -240
178 -370 79 l-33 -25 -33 25 c-73 56 -173 72 -247 40z m129 -60 c17 -4 56 -28
86 -55 31 -27 60 -49 65 -49 5 0 34 22 65 50 74 64 122 73 192 39 26 -13 56
-36 66 -51 27 -37 34 -116 13 -159 -9 -19 -88 -106 -176 -194 l-160 -160 -160
160 c-88 88 -167 175 -176 194 -21 43 -14 122 13 159 20 28 96 72 124 72 9 0
30 -3 48 -6z"/>
</g>
</svg>
